<svg width="99" height="12" fill="none" xmlns="http://www.w3.org/2000/svg"><path d="M7 9H5V2H2v7H0V0h7v9zm7 0V7h-3l-1 2H8l3-9h2l3 9h-2zm-1-4a1850 1850 0 01-2 0h2zm11 4h-1V5h-4v4h-2V0h2v4h4V0h1v9zm10-4l-1 3-3 1-3-1-1-3 1-4 3-1 3 1 1 4zm-6 0l1 2 1 1c2 0 2-1 2-3s0-3-2-3l-1 1-1 2zm10-1h2V3 2h-2v2zm4-1l-1 2-2 1h-1v3h-2V0h3l2 1 1 2zm7 6l-1-2h-3v2h-2l3-9h2l3 9h-2zm-1-4a1850 1850 0 01-2 0h2zm8 4l-2-7h-1l1 3v4h-2V0h2l2 7 3-7h2v9h-2V5a43 43 0 010-3l-2 7h-1zm13 0l-1-2h-3l-1 2h-2l3-9h2l3 9h-1zm-2-4a1658 1658 0 01-2 0h2zm7 2a20 20 0 002-7h5v7h2v4h-2V9h-6v2h-1V7zm4-5a20 20 0 01-2 5h4V2h-2zm13 7h-2V5h-3v4h-2V0h2v4h3V0h2v9zm5-3l-2 3h-2l2-4-1-1V3l1-2 2-1h3v9h-2V6h-1zm1-4h-1-1v2h2V2z" fill="#fff"/></svg>