<svg width="152" height="152" fill="none" xmlns="http://www.w3.org/2000/svg"><path fill="#EEE" d="M0 0h152v152H0z"/><path d="M124 88l-8-34c-1-3-4-10-14-10l-2 1a2 2 0 000 3l2 1c8 0 9 5 9 6l8 31h-4a18 18 0 00-8-14l-2 2-1 2a14 14 0 017 12v2c-1 4-3 7-5 9a14 14 0 01-19 0 14 14 0 01-5-11l2-6-3-1v-2l-1-1-2 8h-3c-1-5-3-9-7-12a19 19 0 00-25 0c-4 3-6 7-6 12h-4l8-31c0-1 1-6 9-6l2-1a2 2 0 000-3l-2-1c-10 0-13 7-14 10l-8 34a2 2 0 000 2 2 2 0 002 0h7v3l1-3a3 3 0 013 0 14 14 0 015-13 14 14 0 0119 0 14 14 0 015 11c0 4-2 7-4 10a15 15 0 01-19 1l-2 1h-1v3c3 2 7 4 12 4 4 0 9-2 12-5 4-3 6-7 7-12h2c1 5 3 9 7 12a19 19 0 0025 0c4-3 6-7 6-12h7a2 2 0 002 0 2 2 0 000-2z" fill="#000"/></svg>