<svg width="43" height="47" fill="none" xmlns="http://www.w3.org/2000/svg"><path d="M35 14H8v19l1 3 2 1v7l1 2a3 3 0 004 0l1-2v-7h9v7l1 2a3 3 0 004 0l1-2v-7l2-1 1-3V14zM3 16l2 1 1 2v12a3 3 0 01-1 2 3 3 0 01-2 1l-2-1-1-2V19a3 3 0 011-2 3 3 0 012-1zM40 16l2 1 1 2v12a3 3 0 01-1 2 3 3 0 01-2 1l-2-1-1-2V19a3 3 0 011-2 3 3 0 012-1zM8 12h27c0-3-1-5-4-7l3-5-3 4c-3-2-6-3-10-3l-9 3-2-4H9l2 5c-2 2-3 4-3 7zm18-5V6a2 2 0 012 0 1 1 0 010 2 2 2 0 01-2 0V7zM14 7l1-1a2 2 0 012 0 1 1 0 010 2 2 2 0 01-2 0l-1-1z" fill="#A4C639"/></svg>