<svg width="74" height="23" fill="none" xmlns="http://www.w3.org/2000/svg"><path d="M0 2a1 1 0 011-2h7c5 0 9 3 9 7 0 5-4 8-9 8H3v7a1 1 0 01-2 1 1 1 0 01-1-1V2zm8 11c4 0 6-2 6-5V7c0-3-2-4-6-4H3v9l5 1zM22 1a1 1 0 011-1 1 1 0 011 1v21a1 1 0 01-1 1 1 1 0 01-1-1V1zM31 1a1 1 0 011-1 2 2 0 012 1l13 17V1a1 1 0 011-1 1 1 0 012 1v21a1 1 0 01-2 1 2 2 0 01-1-1L33 4v18a1 1 0 01-1 1 1 1 0 01-1-1V1zM56 1a1 1 0 011-1 1 1 0 011 1v13L71 1l1-1a1 1 0 011 1 1 1 0 010 1l-8 8 9 11v1a1 1 0 01-1 1 1 1 0 01-1-1l-9-10-5 5v5a1 1 0 01-1 1 1 1 0 01-1-1V1z" fill="#fff"/></svg>